<?xml version="1.0" encoding="UTF-8"?>
<svg version="1.1" xmlns="http://www.w3.org/2000/svg" width="16" height="16">
<path d="M0 0 C5.28 0 10.56 0 16 0 C16 5.28 16 10.56 16 16 C10.72 16 5.44 16 0 16 C0 10.72 0 5.44 0 0 Z " fill="#36266A" transform="translate(0,0)"/>
<path d="M0 0 C1.670625 0.061875 1.670625 0.061875 3.375 0.125 C4.4375 1.9375 4.4375 1.9375 5.375 4.125 C5.045 5.115 4.715 6.105 4.375 7.125 C4.375 6.465 4.375 5.805 4.375 5.125 C2.39963255 5.47286708 2.39963255 5.47286708 0.375 6.125 C0.045 6.785 -0.285 7.445 -0.625 8.125 C-2.605 8.125 -4.585 8.125 -6.625 8.125 C-5.59036145 0.19277108 -5.59036145 0.19277108 0 0 Z " fill="#876DD7" transform="translate(6.625,0.875)"/>
<path d="M0 0 C1.98 0 3.96 0 6 0 C6 0.66 6 1.32 6 2 C6.99 2 7.98 2 9 2 C9 1.34 9 0.68 9 0 C10.65 0 12.3 0 14 0 C13.6875 1.875 13.6875 1.875 13 4 C9.51131349 6.32579101 8.10281481 6.41865457 4 6 C1.625 4.6875 1.625 4.6875 0 3 C0 2.01 0 1.02 0 0 Z " fill="#7E62D2" transform="translate(1,10)"/>
<path d="M0 0 C5.28 0 10.56 0 16 0 C16 2.97 16 5.94 16 9 C14.68 8.67 13.36 8.34 12 8 C10.75 4.9375 10.75 4.9375 10 2 C5.20691658 1.53477707 5.20691658 1.53477707 1.0625 3.5 C0.711875 3.995 0.36125 4.49 0 5 C0 3.35 0 1.7 0 0 Z " fill="#48377C" transform="translate(0,0)"/>
<path d="M0 0 C2.125 0.375 2.125 0.375 4 1 C4.33 2.98 4.66 4.96 5 7 C4.67 6.34 4.34 5.68 4 5 C1.13275314 5.57344937 0.1385485 5.8614515 -2 8 C-2.125 5.125 -2.125 5.125 -2 2 C-1.34 1.34 -0.68 0.68 0 0 Z " fill="#6A5FE7" transform="translate(7,1)"/>
</svg>
